<svg width="24" height="24" viewBox="0 0 24 24" fill="none" xmlns="http://www.w3.org/2000/svg">
<path fill-rule="evenodd" clip-rule="evenodd" d="M15.2803 5.22032C15.1397 5.07987 14.9491 5.00098 14.7503 5.00098C14.5516 5.00098 14.3609 5.07987 14.2203 5.22032L7.97032 11.4703C7.82987 11.6109 7.75098 11.8016 7.75098 12.0003C7.75098 12.1991 7.82987 12.3897 7.97032 12.5303L14.2203 18.7803C14.289 18.854 14.3718 18.9131 14.4638 18.9541C14.5558 18.9951 14.6551 19.0171 14.7558 19.0189C14.8565 19.0207 14.9565 19.0022 15.0499 18.9644C15.1433 18.9267 15.2281 18.8706 15.2994 18.7994C15.3706 18.7281 15.4267 18.6433 15.4644 18.5499C15.5022 18.4565 15.5207 18.3565 15.5189 18.2558C15.5171 18.1551 15.4951 18.0558 15.4541 17.9638C15.4131 17.8718 15.354 17.789 15.2803 17.7203L9.56032 12.0003L15.2803 6.28032C15.4208 6.13969 15.4997 5.94907 15.4997 5.75032C15.4997 5.55157 15.4208 5.36094 15.2803 5.22032V5.22032Z" fill="black"/>
</svg>
