<svg width="24" height="24" viewBox="0 0 24 24" fill="none" xmlns="http://www.w3.org/2000/svg">
<path fill-rule="evenodd" clip-rule="evenodd" d="M3.38177 4.28096C3.54726 4.1353 3.75196 4.04136 3.97044 4.0108C4.18893 3.98024 4.4116 4.0144 4.61081 4.10905L20.4638 11.6526C20.6243 11.7288 20.7598 11.8488 20.8547 11.9988C20.9496 12.1487 21 12.3225 21 12.4999C21 12.6773 20.9496 12.851 20.8547 13.001C20.7598 13.151 20.6243 13.271 20.4638 13.3471L4.61081 20.8907C4.42526 20.9789 4.21909 21.0147 4.0146 20.9944C3.81011 20.974 3.6151 20.8981 3.45069 20.775C3.28627 20.6519 3.15871 20.4863 3.08182 20.296C3.00493 20.1057 2.98163 19.8981 3.01445 19.6955L5.0044 13.7741C5.28224 12.9473 5.28225 12.0524 5.00441 11.2257L3.01445 5.30423C2.98408 5.11658 3.00185 4.9243 3.06608 4.74535C3.13032 4.56641 3.23893 4.40664 3.38177 4.28096Z" fill="black"/>
</svg>
