<svg width="24" height="24" viewBox="0 0 24 24" fill="none" xmlns="http://www.w3.org/2000/svg">
<path d="M15.8183 4.69351C16.84 3.70283 18.4211 3.78314 19.3499 4.87289C20.2786 5.96264 20.2033 7.64916 19.1817 8.63985L15.7165 12L19.1817 15.3602C20.2033 16.3508 20.2786 18.0374 19.3499 19.1271C18.4211 20.2169 16.84 20.2972 15.8183 19.3065L12 15.6039L8.1817 19.3065C7.16006 20.2972 5.57894 20.2169 4.65017 19.1271C3.7214 18.0374 3.79669 16.3508 4.81834 15.3602L8.2835 12L4.81834 8.63985C3.79669 7.64916 3.7214 5.96264 4.65017 4.87289C5.57893 3.78314 7.16006 3.70283 8.1817 4.69351L12 8.39611L15.8183 4.69351Z" fill="white"/>
</svg>
